<svg xmlns="http://www.w3.org/2000/svg" viewBox="0 0 100 100"><g id="Слой_2" data-name="Слой 2"><g id="Слой_1-2" data-name="Слой 1"><path d="M40.63,86.25a4.38,4.38,0,1,1-4.38,4.38,4.38,4.38,0,0,1,4.38-4.38m0-5A9.38,9.38,0,1,0,50,90.63a9.38,9.38,0,0,0-9.37-9.38Z"/><path d="M78.13,86.25a4.38,4.38,0,1,1-4.38,4.38,4.38,4.38,0,0,1,4.38-4.38m0-5a9.38,9.38,0,1,0,9.37,9.38,9.38,9.38,0,0,0-9.37-9.38Z"/><path d="M94.94,25H25.29a5.19,5.19,0,0,0-1.05.11L19.16,2.53a2.14,2.14,0,0,0-.27-.66A2.52,2.52,0,0,0,16.45,0H2.53A2.51,2.51,0,0,0,0,2.5,2.51,2.51,0,0,0,2.53,5h12l5.72,25.45a5,5,0,0,0,.1.64L30.76,77.34a5,5,0,0,0,4.94,3.91H84.53a5,5,0,0,0,4.94-3.91L99.88,31.09A5,5,0,0,0,94.94,25Zm-.83,8.65-9,40.25a3,3,0,0,1-3,2.35H38.14a3.06,3.06,0,0,1-2.82-1.87L26.08,33.27a3,3,0,0,1,3-3.27H91.15A3,3,0,0,1,94.11,33.65Z"/></g></g></svg>