<svg xmlns="http://www.w3.org/2000/svg" viewBox="0 0 100.01 100"><defs><style>.cls-1{fill:none;stroke:#000;stroke-linecap:round;stroke-miterlimit:10;stroke-width:5px;}</style></defs><g id="Слой_2" data-name="Слой 2"><g id="Слой_1-2" data-name="Слой 1"><g id="Слой_2-2" data-name="Слой 2"><path d="M97.51,25H75V10A10,10,0,0,0,65,0H35A10,10,0,0,0,25,10V25H2.5a2.5,2.5,0,0,0,0,5h10V85a15,15,0,0,0,15,15h45a15,15,0,0,0,15-15V30h10a2.5,2.5,0,0,0,0-5ZM30,11a6,6,0,0,1,6-6H64a6,6,0,0,1,6,6V25H30ZM82.5,83a12,12,0,0,1-12,12h-41a12,12,0,0,1-12-12V33a3,3,0,0,1,3-3h59a3,3,0,0,1,3,3Z"/><line class="cls-1" x1="50" y1="38.45" x2="50" y2="85.35"/><line class="cls-1" x1="62.5" y1="43.9" x2="62.5" y2="79.9"/><line class="cls-1" x1="37.5" y1="43.9" x2="37.5" y2="79.9"/></g></g></g></svg>